<svg xmlns="http://www.w3.org/2000/svg" width="64" height="64">
    <path fill="#753742" d="M 30.5,21 V 30.7 H 14.5 c -2.77,0 -5,2.23 -5,5 v 8.5 H 12 V 36.2 c 0,-1.7 1.3,-3 3,-3 h 15.5 v 11 h 2.5 V 33.2 H 49 c 1.7,0 3,1.3 3,3 v 8 h 2.5 V 35.7 c 0,-2.77 -2.23,-5 -5,-5 H 32.9 v -9.6 z" />
    <rect fill="#1cabda" ry="5" y="7" x="23.5" height="15" width="17" />
    <rect fill="#a7d829" ry="5" y="42" x="1.8189676" height="15" width="17" />
    <rect fill="#c38f25" ry="5" y="42" x="23.5" height="15" width="17" />
    <rect fill="#d82c4b" ry="5" y="42" x="45.243534" height="15" width="17" />
    <rect ry="3.5" y="44" x="3.7558601" height="11" width="13" fill="#fff" fill-opacity=".5" />
    <rect ry="3.5" y="44" x="25.5" height="11" width="13" fill="#fff" fill-opacity=".5" />
    <rect ry="3.5" y="44" x="47.244141" height="11" width="13" fill="#fff" fill-opacity=".5" />
    <rect ry="3.5" y="8.9980478" x="25.5" height="11" width="13" fill="#fff" fill-opacity=".5" />
</svg>
